<svg width="63" height="20" viewBox="0 0 63 20" fill="none" xmlns="http://www.w3.org/2000/svg">
<path d="M2.57 19.2295C1.856 19.2295 1.3035 19.017 0.9125 18.592C0.5215 18.167 0.326 17.555 0.326 16.756V8.698C0.326 7.899 0.5215 7.287 0.9125 6.862C1.3035 6.437 1.856 6.2245 2.57 6.2245C3.301 6.2245 3.862 6.437 4.253 6.862C4.661 7.287 4.865 7.899 4.865 8.698V16.756C4.865 17.555 4.6695 18.167 4.2785 18.592C3.8875 19.017 3.318 19.2295 2.57 19.2295ZM2.57 4.414C1.771 4.414 1.1505 4.227 0.7085 3.853C0.2835 3.479 0.0710001 2.935 0.0710001 2.221C0.0710001 1.524 0.2835 0.988499 0.7085 0.6145C1.1505 0.240499 1.771 0.0534992 2.57 0.0534992C3.403 0.0534992 4.032 0.240499 4.457 0.6145C4.882 0.988499 5.0945 1.524 5.0945 2.221C5.0945 2.935 4.882 3.479 4.457 3.853C4.032 4.227 3.403 4.414 2.57 4.414ZM10.1754 19C9.42738 19 8.84088 18.796 8.41588 18.388C8.00788 17.963 7.80388 17.3765 7.80388 16.6285V3.3685C7.80388 2.6035 8.00788 2.017 8.41588 1.609C8.82388 1.201 9.40188 0.996999 10.1499 0.996999C10.9149 0.996999 11.4929 1.201 11.8839 1.609C12.2919 2.017 12.4959 2.6035 12.4959 3.3685V15.0985H18.7179C19.3639 15.0985 19.8569 15.2685 20.1969 15.6085C20.5539 15.9315 20.7324 16.4075 20.7324 17.0365C20.7324 17.6655 20.5539 18.15 20.1969 18.49C19.8569 18.83 19.3639 19 18.7179 19H10.1754ZM28.6394 19.2805C27.2454 19.2805 26.0299 19.017 24.9929 18.49C23.9559 17.963 23.1484 17.2065 22.5704 16.2205C21.9924 15.2345 21.7034 14.07 21.7034 12.727C21.7034 11.707 21.8649 10.7975 22.1879 9.9985C22.5109 9.1825 22.9784 8.494 23.5904 7.933C24.2024 7.355 24.9334 6.9215 25.7834 6.6325C26.6334 6.3265 27.5854 6.1735 28.6394 6.1735C30.0334 6.1735 31.2489 6.437 32.2859 6.964C33.3229 7.491 34.1219 8.2475 34.6829 9.2335C35.2609 10.2025 35.5499 11.367 35.5499 12.727C35.5499 13.73 35.3884 14.6395 35.0654 15.4555C34.7424 16.2715 34.2749 16.9685 33.6629 17.5465C33.0679 18.1075 32.3369 18.541 31.4699 18.847C30.6199 19.136 29.6764 19.2805 28.6394 19.2805ZM28.6394 15.94C29.0984 15.94 29.5064 15.8295 29.8634 15.6085C30.2204 15.3705 30.4924 15.022 30.6794 14.563C30.8834 14.087 30.9854 13.475 30.9854 12.727C30.9854 11.588 30.7644 10.772 30.3224 10.279C29.8804 9.769 29.3194 9.514 28.6394 9.514C28.1804 9.514 27.7724 9.6245 27.4154 9.8455C27.0584 10.0665 26.7779 10.415 26.5739 10.891C26.3699 11.35 26.2679 11.962 26.2679 12.727C26.2679 13.849 26.4889 14.665 26.9309 15.175C27.3729 15.685 27.9424 15.94 28.6394 15.94ZM44.0302 19.2805C42.6192 19.2805 41.3867 19.017 40.3327 18.49C39.2957 17.963 38.4882 17.2065 37.9102 16.2205C37.3322 15.2175 37.0432 14.0445 37.0432 12.7015C37.0432 11.6815 37.2047 10.772 37.5277 9.973C37.8507 9.157 38.3182 8.4685 38.9302 7.9075C39.5592 7.3465 40.2987 6.9215 41.1487 6.6325C42.0157 6.3265 42.9762 6.1735 44.0302 6.1735C44.5232 6.1735 45.0417 6.2245 45.5857 6.3265C46.1297 6.4115 46.6907 6.5815 47.2687 6.8365C47.6767 6.9895 47.9572 7.2275 48.1102 7.5505C48.2802 7.8565 48.3482 8.188 48.3142 8.545C48.2972 8.902 48.1952 9.225 48.0082 9.514C47.8382 9.803 47.5917 9.9985 47.2687 10.1005C46.9627 10.2025 46.6142 10.16 46.2232 9.973C45.9512 9.837 45.6622 9.7435 45.3562 9.6925C45.0672 9.6245 44.7867 9.5905 44.5147 9.5905C44.0557 9.5905 43.6477 9.6585 43.2907 9.7945C42.9507 9.9305 42.6617 10.1345 42.4237 10.4065C42.1857 10.6615 41.9987 10.9845 41.8627 11.3755C41.7437 11.7665 41.6842 12.2085 41.6842 12.7015C41.6842 13.6875 41.9307 14.461 42.4237 15.022C42.9167 15.583 43.6137 15.8635 44.5147 15.8635C44.7867 15.8635 45.0672 15.838 45.3562 15.787C45.6452 15.719 45.9342 15.617 46.2232 15.481C46.6142 15.294 46.9627 15.26 47.2687 15.379C47.5747 15.481 47.8212 15.6765 48.0082 15.9655C48.1952 16.2545 48.2972 16.5775 48.3142 16.9345C48.3312 17.2745 48.2547 17.606 48.0847 17.929C47.9147 18.235 47.6257 18.4645 47.2177 18.6175C46.6567 18.8725 46.1042 19.0425 45.5602 19.1275C45.0332 19.2295 44.5232 19.2805 44.0302 19.2805ZM52.2253 19.2295C51.5113 19.2295 50.9588 19.034 50.5678 18.643C50.1768 18.252 49.9813 17.6825 49.9813 16.9345V3.088C49.9813 2.34 50.1768 1.7705 50.5678 1.3795C50.9588 0.988499 51.5113 0.792999 52.2253 0.792999C52.9563 0.792999 53.5173 0.988499 53.9083 1.3795C54.3163 1.7705 54.5203 2.34 54.5203 3.088V11.503H54.5713L57.6823 7.729C58.1073 7.219 58.4983 6.845 58.8553 6.607C59.2293 6.352 59.7308 6.2245 60.3598 6.2245C60.9888 6.2245 61.4733 6.3775 61.8133 6.6835C62.1533 6.9895 62.3318 7.372 62.3488 7.831C62.3658 8.29 62.1788 8.749 61.7878 9.208L58.4218 13.186V11.605L62.1958 16.348C62.5698 16.824 62.7228 17.2915 62.6548 17.7505C62.5868 18.1925 62.3658 18.5495 61.9918 18.8215C61.6348 19.0935 61.1758 19.2295 60.6148 19.2295C59.9348 19.2295 59.3908 19.1105 58.9828 18.8725C58.5748 18.6175 58.1668 18.2265 57.7588 17.6995L54.5713 13.7725H54.5203V16.9345C54.5203 18.4645 53.7553 19.2295 52.2253 19.2295Z" fill="black"/>
</svg>
