<svg width="40" height="40" viewBox="0 0 40 40" fill="none" xmlns="http://www.w3.org/2000/svg">
<rect width="40" height="40" rx="20" fill="#EFEFEF"/>
<path d="M24 28L19.238 19.27L23 13L31 28H24ZM16 17L22 28H10L16 17ZM13.5 15C12.837 15 12.2011 14.7366 11.7322 14.2678C11.2634 13.7989 11 13.163 11 12.5C11 11.837 11.2634 11.2011 11.7322 10.7322C12.2011 10.2634 12.837 10 13.5 10C14.163 10 14.7989 10.2634 15.2678 10.7322C15.7366 11.2011 16 11.837 16 12.5C16 13.163 15.7366 13.7989 15.2678 14.2678C14.7989 14.7366 14.163 15 13.5 15Z" fill="#D9D9D9"/>
</svg>
