<svg width="15" height="16" viewBox="0 0 15 16" fill="none" xmlns="http://www.w3.org/2000/svg">
<rect width="15" height="16" rx="1" fill="#8000FF"/>
<path d="M3.68 12.108C3.344 12.108 3.084 12.008 2.9 11.808C2.716 11.608 2.624 11.32 2.624 10.944V7.152C2.624 6.776 2.716 6.488 2.9 6.288C3.084 6.088 3.344 5.988 3.68 5.988C4.024 5.988 4.288 6.088 4.472 6.288C4.664 6.488 4.76 6.776 4.76 7.152V10.944C4.76 11.32 4.668 11.608 4.484 11.808C4.3 12.008 4.032 12.108 3.68 12.108ZM3.68 5.136C3.304 5.136 3.012 5.048 2.804 4.872C2.604 4.696 2.504 4.44 2.504 4.104C2.504 3.776 2.604 3.524 2.804 3.348C3.012 3.172 3.304 3.084 3.68 3.084C4.072 3.084 4.368 3.172 4.568 3.348C4.768 3.524 4.868 3.776 4.868 4.104C4.868 4.44 4.768 4.696 4.568 4.872C4.368 5.048 4.072 5.136 3.68 5.136ZM7.259 12C6.907 12 6.631 11.904 6.431 11.712C6.239 11.512 6.143 11.236 6.143 10.884V4.644C6.143 4.284 6.239 4.008 6.431 3.816C6.623 3.624 6.895 3.528 7.247 3.528C7.607 3.528 7.879 3.624 8.063 3.816C8.255 4.008 8.351 4.284 8.351 4.644V10.164H11.279C11.583 10.164 11.815 10.244 11.975 10.404C12.143 10.556 12.227 10.78 12.227 11.076C12.227 11.372 12.143 11.6 11.975 11.76C11.815 11.92 11.583 12 11.279 12H7.259Z" fill="white"/>
</svg>
